<svg width="22" height="23" viewBox="0 0 22 23" fill="none" xmlns="http://www.w3.org/2000/svg">
<g clip-path="url(#clip0_17242_36)">
<path d="M18.9521 6.64931C18.965 6.84619 18.965 7.04306 18.965 7.24175C18.965 13.2959 14.6272 20.2781 6.69541 20.2781V20.2745C4.35234 20.2781 2.05793 19.565 0.0854492 18.2205C0.426151 18.264 0.768561 18.2858 1.11182 18.2867C3.05357 18.2885 4.93981 17.5963 6.46742 16.3216C4.62217 16.2844 3.00404 15.0061 2.43877 13.1398C3.08516 13.2723 3.7512 13.2451 4.38564 13.0609C2.37387 12.6291 0.926531 10.751 0.926531 8.56998C0.926531 8.55002 0.926531 8.53097 0.926531 8.51191C1.52596 8.86665 2.19712 9.06353 2.88365 9.0853C0.988865 7.73984 0.404804 5.06161 1.54902 2.96766C3.73839 5.83006 6.96866 7.57018 10.4363 7.75435C10.0888 6.16302 10.5635 4.49548 11.6838 3.37683C13.4206 1.64215 16.1522 1.73107 17.7849 3.57552C18.7506 3.3732 19.6762 2.99669 20.5233 2.46322C20.2014 3.52381 19.5277 4.42472 18.6277 4.9972C19.4824 4.89014 20.3175 4.64699 21.1039 4.27592C20.525 5.1977 19.7958 6.00062 18.9521 6.64931Z" fill="white"/>
</g>
<defs>
<clipPath id="clip0_17242_36">
<rect width="21.1765" height="22.5" fill="white"/>
</clipPath>
</defs>
</svg>
